PathFileType  4	(X/Y/Z) C:\Users\antoi\Documents\MyRepositories\mobilecap\ResultsAnalysis
DataRate	CameraRate	NumFrames	NumMarkers	Units	OrigDataRate	OrigDataStartFrame	OrigNumFrames
100.0	100.0	4	51	mm	100.0	210	279
Frame#	Time	r_knee			r_shank_antsup			r_ankle			r_calc			r_5meta			r_toe			L_knee			L_shank_antsup			L_ankle			L_calc			L_5meta			L_toe			r_sh2			r_sh3			r_sh4			L_sh2			L_sh3			r_thigh1			r_thigh2			r_thigh3			r_thigh4			r_thigh5			L_thigh1			L_thigh2			L_thigh3			L_thigh4			r.ASIS			r.PSIS			L.ASIS			L.PSIS			C7			R_Shoulder			L_Shoulder			R_Sternum			L_Sternum			R_humerus			R_elbow_med			R_elbow_lat			R_forearm			R_wrist_radius			R_wrist_ulna			L_humerus			L_elbow_med			L_elbow_lat			L_forearm			L_wrist_radius			L_wrist_ulna			R_HJC			L_HJC			R_HJC_reg			L_HJC_reg			
		X1	Y1	Z1	X2	Y2	Z2	X3	Y3	Z3	X4	Y4	Z4	X5	Y5	Z5	X6	Y6	Z6	X7	Y7	Z7	X8	Y8	Z8	X9	Y9	Z9	X10	Y10	Z10	X11	Y11	Z11	X12	Y12	Z12	X13	Y13	Z13	X14	Y14	Z14	X15	Y15	Z15	X16	Y16	Z16	X17	Y17	Z17	X18	Y18	Z18	X19	Y19	Z19	X20	Y20	Z20	X21	Y21	Z21	X22	Y22	Z22	X23	Y23	Z23	X24	Y24	Z24	X25	Y25	Z25	X26	Y26	Z26	X27	Y27	Z27	X28	Y28	Z28	X29	Y29	Z29	X30	Y30	Z30	X31	Y31	Z31	X32	Y32	Z32	X33	Y33	Z33	X34	Y34	Z34	X35	Y35	Z35	X36	Y36	Z36	X37	Y37	Z37	X38	Y38	Z38	X39	Y39	Z39	X40	Y40	Z40	X41	Y41	Z41	X42	Y42	Z42	X43	Y43	Z43	X44	Y44	Z44	X45	Y45	Z45	X46	Y46	Z46	X47	Y47	Z47	X48	Y48	Z48	X49	Y49	Z49	X50	Y50	Z50	X51	Y51	Z51	

210	2.09000000	-77.48474	487.93344	-448.92676	-72.68954	407.62038	-428.98734	-284.15179	114.70641	-436.52409	-355.00613	63.96838	-489.04282	-170.49560	38.79473	-383.93222	-123.97025	57.32417	-438.76879	-105.53130	492.13756	-771.65063	-116.73215	377.80270	-788.35870	-310.45799	115.70564	-746.46448	-384.90001	72.17008	-697.64928	-153.06426	55.14087	-745.43902	-187.06909	32.29730	-807.01779	-123.73545	306.82705	-419.38519	-139.06630	443.28077	-413.88293	-198.92491	344.69558	-410.00736	-192.37150	426.90138	-789.88165	-245.68583	318.44914	-783.79098	-172.70854	786.61988	-403.35248	-109.03962	698.54542	-418.71707	-138.07041	643.18876	-396.82007	-263.29509	717.82232	-411.19923	-188.84826	626.88928	-411.92997	-199.62028	799.48598	-781.37410	-119.12674	685.24610	-785.18112	-295.86202	731.68720	-764.91403	-210.94866	622.66654	-781.64322	-200.81309	921.42748	-459.42778	-381.92936	1006.41205	-522.23533	-218.84863	927.78937	-716.76506	-389.37144	1008.23980	-626.31811	-247.19302	1492.28715	-569.07611	-167.09894	1485.48095	-422.85824	-163.92941	1499.06933	-702.46516	-93.21396	1404.99175	-539.50164	-97.00178	1410.18339	-599.41658	-58.92417	1404.12457	-211.21406	25.09282	1305.21859	-190.85292	-4.96541	1378.67103	-142.76004	77.91175	1475.69945	-239.61986	128.92463	1525.08449	-324.33458	150.67165	1533.57635	-283.24926	-116.24593	1445.90708	-937.74462	-64.36772	1342.34147	-1010.29889	-92.61478	1421.54444	-1024.63500	49.46807	1512.59192	-973.19778	114.84735	1555.40701	-919.30022	131.16196	1550.42340	-953.26480	-300.74305	864.44419	-460.45644	-314.35514	869.67672	-690.36221	-292.13497	867.51684	-490.50755	-304.27989	870.49964	-660.35919	
211	2.10000000	-87.66387	497.54243	-447.57429	-81.60294	416.79180	-427.98773	-283.71245	116.84099	-436.58419	-354.00958	67.05121	-489.24112	-170.29257	38.91324	-384.02150	-123.55894	57.12967	-438.80407	-114.93216	502.57955	-771.47395	-124.09556	386.86412	-788.86090	-309.60821	118.23306	-747.79290	-383.82058	76.35327	-698.14424	-152.99374	55.21497	-745.54783	-186.92283	32.21021	-807.01660	-129.31998	314.11497	-418.71833	-149.48879	450.13892	-413.11577	-205.81810	349.36838	-409.58231	-201.22025	433.67507	-789.98293	-251.17721	323.58727	-783.91116	-168.87229	801.62141	-403.40462	-109.64540	710.23896	-418.80853	-141.28964	656.60356	-396.41297	-262.62408	737.01753	-411.52370	-192.88379	642.75599	-411.23846	-195.21940	814.88928	-781.89348	-120.83944	696.97956	-785.49861	-294.47224	751.78197	-765.13127	-215.03010	638.71866	-781.84360	-192.98323	943.15129	-459.88200	-374.87378	1027.13982	-522.74228	-211.49490	949.29436	-716.94612	-382.57691	1028.95584	-626.66602	-252.53561	1516.24535	-568.28735	-173.00163	1516.69540	-426.24796	-168.71540	1528.41003	-697.97717	-96.36391	1433.56603	-538.34591	-99.45023	1438.93117	-596.01726	-62.15708	1443.86926	-212.42302	22.76692	1346.25761	-190.95095	-9.37865	1419.97813	-142.14807	69.74621	1520.19563	-240.06831	119.16716	1571.04793	-324.63799	140.13994	1580.82340	-282.97255	-117.18766	1486.51465	-933.50175	-64.84052	1387.17836	-1010.31336	-94.16224	1466.54708	-1021.49385	44.02165	1560.66863	-966.24725	108.27572	1604.43306	-910.38695	122.35487	1602.19790	-946.11205	-292.80073	885.69113	-460.74701	-306.64702	890.66593	-690.64472	-283.98498	888.70652	-490.71677	-296.56070	891.67127	-660.37524	
212	2.11000000	-99.65953	508.91008	-445.99465	-92.45123	427.58169	-426.85741	-282.85464	119.79610	-436.58369	-352.64246	71.57599	-489.56016	-169.92120	39.08517	-384.09132	-123.02662	56.80404	-439.04746	-126.30397	515.01229	-771.30297	-133.07185	397.84736	-789.44769	-308.35869	121.84750	-750.09769	-382.27309	82.01968	-698.95544	-152.90794	55.34730	-745.67543	-186.71244	32.05674	-806.91070	-136.13304	322.97290	-417.86761	-161.82770	458.01694	-412.49699	-214.16335	355.17798	-409.19069	-211.73437	441.93586	-790.07074	-257.68389	330.13053	-784.08382	-165.10989	818.06214	-403.77914	-110.84556	723.57900	-419.19272	-145.15119	671.68355	-396.27740	-262.16536	758.48851	-411.67854	-197.56830	660.63665	-410.62537	-191.10410	831.90730	-782.54184	-124.11865	710.28303	-785.88090	-293.44256	774.07558	-765.37860	-220.39342	656.83512	-781.93518	-184.29299	966.74743	-460.23914	-367.02979	1049.67255	-522.86800	-203.53921	972.80511	-716.98071	-375.02469	1051.61413	-626.88558	-257.87788	1541.73627	-567.35521	-180.09726	1547.83720	-429.00465	-174.28863	1558.16752	-693.43187	-99.35658	1464.41589	-536.55320	-101.48085	1469.70444	-590.80190	-66.94273	1481.71480	-214.22979	18.99860	1385.23244	-190.87881	-15.56793	1458.03725	-142.29407	61.02049	1561.33092	-240.00830	108.95398	1614.02707	-324.09415	129.56309	1624.33288	-282.22693	-119.77231	1526.43192	-928.63139	-67.93253	1430.69348	-1009.86602	-97.50938	1510.27870	-1018.09208	37.80415	1606.42982	-959.58670	100.99614	1650.31576	-902.28035	113.87056	1649.90103	-938.71288	-284.00179	908.78079	-460.90637	-298.24616	913.62357	-690.78266	-275.03000	911.64303	-490.88569	-288.05345	914.80540	-660.32862	
213	2.12000000	-113.68812	521.98528	-445.34627	-105.50157	440.11945	-426.04045	-281.17926	124.20929	-436.29477	-350.47751	78.47328	-489.89370	-169.32667	39.49997	-384.17828	-122.29451	56.52315	-439.21120	-139.87457	529.77930	-771.49802	-143.78278	411.26044	-790.23345	-306.31491	126.82316	-752.65175	-379.87916	89.85394	-700.23603	-152.76977	55.49925	-745.95038	-186.51132	31.89705	-806.89438	-144.49017	333.74684	-417.02538	-175.75343	467.30868	-411.63451	-223.88354	362.76254	-408.60135	-224.06472	452.14021	-790.07038	-265.22255	338.61857	-784.23218	-161.56449	836.46520	-404.60935	-112.83125	738.81214	-419.63057	-149.81598	689.02698	-396.00733	-261.87477	782.39695	-411.61631	-203.07006	680.99045	-409.77482	-187.44946	850.68232	-783.14661	-128.28081	725.50930	-786.55833	-292.84504	798.83027	-765.76386	-226.89794	677.38493	-782.09103	-174.72285	992.53171	-460.58009	-358.44172	1073.80719	-522.77356	-195.00872	998.41150	-717.18692	-366.64093	1076.10994	-627.02283	-262.99464	1568.45051	-566.57933	-188.16959	1578.77367	-430.90502	-180.76084	1588.21638	-689.12493	-102.33548	1496.40183	-534.51349	-104.24420	1501.28858	-587.27171	-73.48676	1516.85174	-216.14722	13.53867	1421.11462	-191.22537	-23.10797	1492.84847	-142.73762	51.71493	1599.31319	-238.90075	98.88693	1653.64727	-322.47269	119.01064	1663.89239	-280.93389	-123.90586	1565.18840	-923.96159	-73.32580	1472.14915	-1009.49229	-102.66384	1551.76310	-1014.75963	30.54016	1649.25818	-953.79754	92.70733	1692.81979	-895.72900	106.68825	1692.62922	-930.62159	-274.13620	933.77551	-461.05436	-289.01614	938.51214	-690.89234	-265.19533	936.09134	-491.30484	-278.51600	939.83255	-660.67371	
